<svg id="svg" version="1.1" xmlns="http://www.w3.org/2000/svg" xmlns:xlink="http://www.w3.org/1999/xlink" width="400" height="400" viewBox="0, 0, 400,400"><g id="svgg"><path id="path0" d="M312.891 113.134 C 312.354 113.203,306.641 113.714,300.195 114.269 C 282.961 115.752,262.583 117.777,247.101 119.545 C 226.269 121.922,228.062 120.399,227.351 136.328 C 227.135 141.162,226.866 147.139,226.753 149.609 C 226.499 155.161,225.865 170.854,225.576 178.711 C 225.458 181.934,225.288 185.713,225.199 187.109 C 224.606 196.385,224.534 201.218,224.971 202.274 C 225.642 203.894,253.472 230.633,255.525 231.630 C 256.599 232.152,259.242 231.995,283.726 229.952 C 350.260 224.402,343.738 225.081,345.401 223.524 C 347.248 221.795,347.283 221.468,348.429 195.117 C 348.644 190.176,348.913 184.463,349.027 182.422 C 349.323 177.131,350.383 148.843,350.425 145.117 C 350.480 140.166,351.512 141.342,331.250 123.244 C 319.383 112.643,318.871 112.362,312.891 113.134 M318.310 126.813 C 320.378 128.670,322.951 130.999,324.027 131.989 C 325.103 132.979,326.861 134.567,327.933 135.517 C 331.599 138.767,333.645 140.704,333.522 140.809 C 333.454 140.866,327.285 141.487,319.812 142.189 L 306.226 143.464 303.406 140.799 C 298.524 136.185,288.281 126.042,288.392 125.931 C 288.489 125.834,311.523 123.604,313.623 123.488 C 314.277 123.452,315.658 124.432,318.310 126.813 M278.816 136.248 C 283.600 140.911,287.512 144.832,287.507 144.962 C 287.503 145.091,285.786 145.316,283.691 145.461 C 281.597 145.606,276.227 146.086,271.759 146.527 L 263.636 147.329 260.041 144.025 C 253.768 138.260,245.512 130.406,245.395 130.093 C 245.333 129.926,247.002 129.665,249.106 129.513 C 251.209 129.360,255.918 128.916,259.570 128.526 C 263.223 128.136,267.090 127.806,268.164 127.793 L 270.117 127.769 278.816 136.248 M86.493 138.636 C 55.723 155.808,53.516 157.164,53.516 158.902 C 53.516 159.347,57.296 164.777,61.916 170.969 C 83.101 199.362,94.657 215.117,105.841 230.859 C 125.838 259.004,124.024 256.838,126.514 255.540 C 129.179 254.151,147.566 240.559,156.048 233.708 C 161.358 229.420,161.762 228.805,160.661 226.695 C 157.435 220.504,102.277 138.059,98.701 134.082 C 97.428 132.666,96.712 132.933,86.493 138.636 M254.852 154.864 C 255.725 155.724,255.736 156.385,255.081 169.531 C 254.883 173.506,254.624 179.131,254.506 182.031 C 253.858 197.905,253.077 214.630,252.980 214.728 C 252.936 214.772,251.589 213.534,249.986 211.977 C 248.382 210.420,244.292 206.522,240.896 203.316 L 234.722 197.485 234.929 195.129 C 235.044 193.834,235.235 190.225,235.354 187.109 C 235.473 183.994,235.654 179.951,235.755 178.125 C 235.857 176.299,236.122 170.322,236.344 164.844 C 236.566 159.365,236.915 151.982,237.120 148.438 C 237.325 144.893,237.494 141.140,237.496 140.099 L 237.500 138.206 245.788 146.154 C 250.347 150.525,254.425 154.445,254.852 154.864 M339.840 152.246 C 339.838 153.052,339.664 157.490,339.453 162.109 C 339.243 166.729,338.809 177.451,338.489 185.938 C 338.169 194.424,337.797 204.268,337.661 207.813 C 337.526 211.357,337.303 214.372,337.165 214.511 C 337.027 214.651,330.498 215.317,322.656 215.992 C 314.814 216.667,307.520 217.298,306.445 217.395 C 305.371 217.493,302.471 217.746,300.000 217.959 C 297.529 218.172,293.486 218.521,291.016 218.736 C 271.683 220.413,263.522 221.074,263.419 220.971 C 263.280 220.832,264.704 187.360,265.416 174.023 C 265.519 172.090,265.719 167.659,265.859 164.177 L 266.114 157.846 267.725 157.627 C 268.611 157.507,274.082 156.973,279.883 156.439 C 285.684 155.906,290.900 155.389,291.475 155.290 L 292.520 155.109 292.296 163.016 C 291.999 173.476,291.175 172.876,304.254 171.721 C 310.748 171.147,310.907 171.050,310.989 167.601 C 311.018 166.407,311.149 162.719,311.282 159.407 L 311.523 153.384 312.500 153.285 C 313.037 153.231,316.729 152.890,320.703 152.527 C 324.678 152.164,330.039 151.645,332.617 151.373 C 340.200 150.573,339.844 150.530,339.840 152.246 M187.496 163.081 C 167.619 164.122,167.576 164.132,167.580 167.924 C 167.584 171.909,168.972 172.463,178.083 172.117 C 194.604 171.488,211.585 170.661,212.305 170.451 C 215.330 169.567,216.175 165.500,213.822 163.147 C 212.520 161.845,211.176 161.842,187.496 163.081 M204.102 184.366 C 201.309 184.527,196.826 184.775,194.141 184.918 C 184.286 185.440,183.604 185.593,182.621 187.492 C 181.681 189.311,181.883 190.555,183.359 192.031 C 184.881 193.553,184.766 193.541,192.578 192.972 C 195.479 192.761,200.808 192.408,204.422 192.188 C 212.818 191.678,214.759 190.608,213.851 186.990 C 213.187 184.342,211.657 183.930,204.102 184.366 M204.688 215.620 C 200.069 216.450,193.587 220.083,183.789 227.334 C 178.497 231.250,177.248 231.735,170.185 232.614 C 162.204 233.608,162.198 233.611,156.328 239.935 C 147.917 248.998,142.308 253.450,134.161 257.533 C 129.336 259.950,128.847 261.238,130.496 267.195 C 132.225 273.438,135.927 279.567,141.929 286.126 C 147.120 291.798,146.784 291.866,161.354 282.144 C 174.761 273.197,174.677 273.281,173.125 270.261 L 172.396 268.841 175.596 267.597 C 186.170 263.484,195.095 256.682,209.080 242.078 C 225.385 225.052,224.637 226.224,221.387 222.781 C 216.159 217.244,210.103 214.647,204.688 215.620 " stroke="none" fill="#040404" fill-rule="evenodd"></path><path id="path1" d="M0.000 200.000 L 0.000 400.000 200.000 400.000 L 400.000 400.000 400.000 200.000 L 400.000 0.000 200.000 0.000 L 0.000 0.000 0.000 200.000 M320.380 113.772 C 321.860 114.676,325.812 118.138,339.215 130.271 C 343.488 134.139,347.554 137.784,348.251 138.369 C 350.366 140.148,350.850 141.973,350.597 147.219 C 350.476 149.715,350.204 156.504,349.993 162.305 C 349.781 168.105,349.515 174.785,349.403 177.148 C 349.291 179.512,348.854 189.004,348.432 198.242 C 347.454 219.610,347.343 221.033,346.534 222.447 C 345.173 224.824,344.490 224.980,330.172 226.188 C 322.923 226.799,311.719 227.748,305.273 228.295 C 298.828 228.843,288.193 229.734,281.641 230.275 C 275.088 230.816,268.760 231.348,267.578 231.458 C 257.568 232.384,256.967 232.406,255.723 231.886 C 254.497 231.374,241.730 219.452,230.371 208.212 L 224.609 202.510 224.612 199.595 C 224.613 197.992,224.783 192.900,224.989 188.281 C 225.196 183.662,225.461 177.510,225.579 174.609 C 227.329 131.477,227.652 125.510,228.309 124.240 C 228.895 123.108,230.413 121.844,231.782 121.348 C 233.625 120.681,270.882 116.709,296.289 114.471 C 303.594 113.828,310.186 113.237,310.938 113.159 C 315.536 112.677,318.953 112.899,320.380 113.772 M301.221 124.792 L 288.183 125.977 297.152 134.648 L 306.121 143.319 314.486 142.527 C 319.087 142.091,325.279 141.529,328.246 141.277 L 333.641 140.820 324.759 132.814 C 319.873 128.410,315.512 124.537,315.067 124.207 C 314.334 123.664,313.024 123.720,301.221 124.792 M266.797 127.996 C 266.045 128.072,261.650 128.486,257.031 128.918 C 252.412 129.349,247.897 129.795,246.998 129.910 L 245.364 130.118 254.492 138.672 C 263.125 146.761,263.690 147.216,264.915 147.055 C 266.273 146.876,277.278 145.842,281.641 145.483 C 283.037 145.368,284.862 145.175,285.696 145.055 L 287.212 144.836 278.668 136.285 C 271.772 129.384,269.935 127.746,269.144 127.797 C 268.605 127.831,267.549 127.921,266.797 127.996 M98.911 134.277 C 102.060 137.626,157.634 220.552,160.690 226.462 C 162.185 229.352,161.187 230.310,140.820 245.552 C 127.395 255.599,125.665 256.679,124.128 255.978 C 123.628 255.750,118.446 248.812,112.335 240.188 C 98.590 220.790,90.060 209.048,75.059 188.867 C 68.511 180.059,60.985 169.927,58.334 166.353 C 51.710 157.419,51.456 158.284,62.552 151.976 C 97.280 132.235,97.081 132.331,98.911 134.277 M236.352 168.071 L 235.042 197.461 239.494 201.768 C 241.942 204.136,246.011 208.082,248.535 210.535 L 253.125 214.996 253.127 213.455 C 253.128 211.805,254.531 177.405,254.862 170.898 C 254.971 168.750,255.172 164.443,255.307 161.328 L 255.554 155.664 252.484 152.755 C 250.796 151.156,247.304 147.816,244.725 145.333 C 242.145 142.851,239.501 140.339,238.848 139.750 L 237.661 138.680 236.352 168.071 M325.615 152.194 C 318.111 152.925,311.871 153.623,311.748 153.747 C 311.624 153.870,311.436 157.575,311.328 161.981 C 311.115 170.713,310.882 171.484,308.453 171.485 C 307.993 171.485,305.771 171.648,303.516 171.847 C 290.801 172.971,291.987 173.858,292.133 163.328 C 292.219 157.097,292.137 155.469,291.736 155.469 C 290.365 155.469,266.577 157.907,266.418 158.064 C 266.181 158.297,263.340 220.634,263.556 220.848 C 263.646 220.938,266.752 220.691,279.688 219.566 C 289.099 218.747,309.089 217.022,325.391 215.622 C 330.439 215.188,335.188 214.739,335.942 214.624 L 337.314 214.416 337.412 210.626 C 337.466 208.541,337.598 204.902,337.705 202.539 C 337.812 200.176,338.247 189.014,338.671 177.734 C 339.095 166.455,339.534 155.776,339.645 154.004 C 339.757 152.231,339.716 150.800,339.553 150.824 C 339.391 150.847,333.118 151.464,325.615 152.194 M212.657 162.263 C 216.965 164.063,215.705 170.265,210.914 170.842 C 209.960 170.957,203.818 171.248,197.266 171.489 C 190.713 171.730,182.126 172.087,178.184 172.282 C 172.268 172.574,170.830 172.540,169.952 172.086 C 166.994 170.556,166.576 166.923,169.098 164.676 C 169.911 163.951,181.122 163.146,206.250 162.009 C 207.861 161.936,209.669 161.841,210.266 161.797 C 210.864 161.754,211.940 161.964,212.657 162.263 M212.053 184.541 C 215.574 186.362,214.248 191.440,210.122 191.938 C 208.024 192.192,197.062 192.887,189.775 193.228 L 184.433 193.478 183.232 192.277 C 181.578 190.623,181.554 188.437,183.171 186.627 L 184.310 185.352 195.182 184.724 C 209.599 183.892,210.773 183.879,212.053 184.541 M213.484 216.743 C 217.964 218.839,223.438 223.761,223.438 225.692 C 223.438 227.128,219.371 231.751,207.423 243.898 C 193.563 257.989,186.185 263.550,175.977 267.600 C 172.189 269.103,172.475 268.828,173.213 270.257 C 174.782 273.289,174.713 273.360,161.778 281.992 C 145.999 292.522,146.949 292.405,140.404 284.619 C 133.800 276.761,130.201 269.699,129.784 263.778 C 129.517 259.971,129.849 259.554,135.462 256.653 C 142.077 253.233,146.121 250.051,154.102 241.985 C 161.994 234.008,162.847 233.437,167.810 232.811 C 177.423 231.598,178.212 231.310,184.375 226.773 C 199.549 215.602,206.170 213.320,213.484 216.743 " stroke="none" fill="#ffffff" fill-rule="evenodd"></path><path id="path2" d="M236.419 162.891 C 236.419 163.643,236.499 163.950,236.597 163.574 C 236.696 163.198,236.696 162.583,236.597 162.207 C 236.499 161.831,236.419 162.139,236.419 162.891 M200.879 162.379 C 201.255 162.477,201.870 162.477,202.246 162.379 C 202.622 162.280,202.314 162.200,201.563 162.200 C 200.811 162.200,200.503 162.280,200.879 162.379 M209.082 170.972 C 209.458 171.071,210.073 171.071,210.449 170.972 C 210.825 170.874,210.518 170.794,209.766 170.794 C 209.014 170.794,208.706 170.874,209.082 170.972 M338.763 173.828 C 338.763 174.580,338.843 174.888,338.941 174.512 C 339.039 174.136,339.039 173.521,338.941 173.145 C 338.843 172.769,338.763 173.076,338.763 173.828 M234.375 212.305 C 235.104 213.057,235.788 213.672,235.895 213.672 C 236.003 213.672,235.494 213.057,234.766 212.305 C 234.037 211.553,233.353 210.938,233.245 210.938 C 233.138 210.938,233.646 211.553,234.375 212.305 M220.313 221.607 C 220.313 221.674,220.884 222.245,221.582 222.876 L 222.852 224.023 221.704 222.754 C 220.635 221.571,220.313 221.305,220.313 221.607 " stroke="none" fill="#9b9992" fill-rule="evenodd"></path><path id="path3" d="" stroke="none" fill="#7f7d74" fill-rule="evenodd"></path><path id="path4" d="M227.434 131.250 C 227.434 132.002,227.515 132.310,227.613 131.934 C 227.711 131.558,227.711 130.942,227.613 130.566 C 227.515 130.190,227.434 130.498,227.434 131.250 M283.789 141.406 C 285.498 143.125,286.984 144.531,287.091 144.531 C 287.198 144.531,285.888 143.125,284.180 141.406 C 282.471 139.688,280.985 138.281,280.878 138.281 C 280.770 138.281,282.080 139.688,283.789 141.406 M245.703 146.216 C 245.703 146.283,246.274 146.854,246.973 147.486 L 248.242 148.633 247.095 147.363 C 246.025 146.180,245.703 145.914,245.703 146.216 M350.099 154.102 C 350.103 154.961,350.183 155.267,350.276 154.781 C 350.370 154.295,350.366 153.592,350.268 153.218 C 350.171 152.845,350.094 153.242,350.099 154.102 M292.299 157.617 C 292.302 158.691,292.378 159.084,292.468 158.491 C 292.558 157.897,292.555 157.018,292.462 156.538 C 292.370 156.057,292.296 156.543,292.299 157.617 M152.323 244.043 L 150.977 245.508 152.441 244.162 C 153.805 242.909,154.086 242.578,153.788 242.578 C 153.722 242.578,153.063 243.237,152.323 244.043 " stroke="none" fill="#7c7471" fill-rule="evenodd"></path></g></svg>